<svg width="990" height="168" viewBox="0 0 990 168" fill="none" xmlns="http://www.w3.org/2000/svg">
<path d="M-2.8 2.99999H33V165H-2.8V2.99999ZM65.1563 2.99999H90.3563L123.556 81V2.99999H153.156V165H128.956L95.7563 81V165H65.1563V2.99999ZM228.266 167.4C212.799 167.4 201.266 163.333 193.666 155.2C186.199 146.933 182.199 133.867 181.666 116L212.266 111.4C212.399 121.667 213.599 129.067 215.866 133.6C218.266 138 221.799 140.2 226.466 140.2C232.466 140.2 235.466 136.267 235.466 128.4C235.466 122.133 233.999 116.733 231.066 112.2C228.266 107.667 223.799 102.8 217.666 97.6L203.666 85.4C196.732 79.5333 191.332 73.3333 187.466 66.8C183.732 60.1333 181.866 52.2667 181.866 43.2C181.866 29.6 185.866 19.1333 193.866 11.8C201.999 4.46666 213.132 0.799992 227.266 0.799992C242.599 0.799992 252.999 5.26666 258.466 14.2C264.066 23.1333 267.066 34 267.466 46.8L236.666 50.6C236.399 42.2 235.599 36.2 234.266 32.6C233.066 28.8667 230.332 27 226.066 27C222.999 27 220.599 28.3333 218.866 31C217.266 33.5333 216.466 36.4 216.466 39.6C216.466 45.0667 217.666 49.6667 220.066 53.4C222.599 57.1333 226.599 61.4 232.066 66.2L245.466 78C253.466 84.8 259.666 92 264.066 99.6C268.466 107.2 270.666 116.2 270.666 126.6C270.666 134.2 268.866 141.133 265.266 147.4C261.799 153.533 256.866 158.4 250.466 162C244.066 165.6 236.666 167.4 228.266 167.4ZM310.6 29.6H286.2V2.99999H370.8V29.6H346.6V165H310.6V29.6ZM408.636 2.99999H449.436L479.636 165H446.636L441.236 130.8H417.436L411.836 165H378.036L408.636 2.99999ZM437.836 109.4L429.236 46.2L420.636 109.4H437.836ZM543.653 167.4C527.653 167.4 516.253 162.533 509.453 152.8C502.653 143.067 499.253 129.267 499.253 111.4V57C499.253 38.7333 502.92 24.8 510.253 15.2C517.72 5.59999 530.253 0.799992 547.853 0.799992C564.786 0.799992 576.92 4.93332 584.253 13.2C591.586 21.4667 595.253 33.1333 595.253 48.2V58.6H560.253V45.4C560.253 39 559.52 34.2 558.053 31C556.586 27.6667 553.32 26 548.253 26C543.053 26 539.653 27.8 538.053 31.4C536.586 35 535.853 40 535.853 46.4V121.4C535.853 127.8 536.786 132.867 538.653 136.6C540.653 140.2 544.186 142 549.253 142C558.586 142 563.253 135 563.253 121V102H548.653V81H595.453V165H571.853L569.853 151.6C564.786 162.133 556.053 167.4 543.653 167.4ZM625.859 2.99999H670.459C688.193 2.99999 701.593 6.13332 710.659 12.4C719.726 18.6667 724.259 29.8 724.259 45.8C724.259 56.6 722.859 65.2 720.059 71.6C717.259 78 712.059 83 704.459 86.6L726.659 165H689.659L671.859 92.4H661.659V165H625.859V2.99999ZM671.659 71.8C678.859 71.8 683.859 69.9333 686.659 66.2C689.593 62.3333 691.059 56.6 691.059 49C691.059 41.6667 689.726 36.2 687.059 32.6C684.393 28.8667 679.793 27 673.259 27H661.659V71.8H671.659ZM776.581 2.99999H817.381L847.581 165H814.581L809.181 130.8H785.381L779.781 165H745.981L776.581 2.99999ZM805.781 109.4L797.181 46.2L788.581 109.4H805.781ZM874.138 2.99999H912.538L930.338 97.2L949.538 2.99999H986.538L989.338 165H963.938L960.937 57.2L942.138 165H919.538L899.538 56.4L897.138 165H871.338L874.138 2.99999Z" fill="#0A1717"/>
</svg>
